<?xml version="1.0" encoding="UTF-8" standalone="no"?>
<svg
    fill="#ff0000"
    width="36.493198mm"
    height="32.586742mm"
    viewBox="0 0 36.493198 32.586742"
    version="1.1"
    id="svg1"
    xmlns="http://www.w3.org/2000/svg"
    >
    <g id="layer1" transform="translate(-1.7907233,-3.7066272)">
        <path
            id="path13"
            style="font-size:42.3333px;line-height:0;font-family:Serif;-inkscape-font-specification:Serif;letter-spacing:0px;word-spacing:0px;fill-opacity:1"
            d="m 78.239232,56.462426 2.959231,7.219223 a 1.28225,1.28225 90.136048 0 1 -0.0023,0.978297 l -8.7377,21.031 a 1.0595056,1.0595056 56.280652 0 0 0.978421,1.466008 l 4.514453,0 a 2.332251,2.332251 145.75794 0 0 2.16973,-1.476877 l 5.156148,-13.079008 a 0.1943076,0.1943076 1.3528807 0 1 0.364698,0.0086 l 4.443302,13.044557 a 2.2178105,2.2178105 35.594937 0 0 2.099362,1.502715 h 4.741829 A 1.0834472,1.0834472 124.31301 0 0 97.935312,85.67864 L 86.504592,56.471856 a 2.3260536,2.3260536 34.313006 0 0 -2.166071,-1.478314 l -5.113899,0 a 1.0649628,1.0649628 123.8554 0 0 -0.98539,1.468884 z m 14.127785,9.181319 8.074873,20.040741 a 2.3511585,2.3511585 34.027185 0 0 2.18079,1.472468 h 4.74183 a 1.0834523,1.0834523 124.31313 0 0 1.00894,-1.478316 l -7.83871,-20.029045 a 2.3260427,2.3260427 34.313131 0 0 -2.166067,-1.478316 h -5.007447 a 1.0718785,1.0718785 124.02718 0 0 -0.994209,1.472468 z"
            transform="translate(-70.375401,-51.075248)" />
    </g>
</svg>